<svg width="28" height="26" viewBox="0 0 28 26" fill="none" xmlns="http://www.w3.org/2000/svg">
<path d="M26.3781 9.03437L18.4437 7.88125L14.8969 0.690623C14.8 0.493748 14.6406 0.334373 14.4437 0.237498C13.95 -0.00625217 13.35 0.196873 13.1031 0.690623L9.55625 7.88125L1.62187 9.03437C1.40312 9.06562 1.20312 9.16875 1.05 9.325C0.864878 9.51527 0.762869 9.77125 0.766384 10.0367C0.7699 10.3021 0.878653 10.5553 1.06875 10.7406L6.80937 16.3375L5.45312 24.2406C5.42132 24.4245 5.44166 24.6135 5.51185 24.7864C5.58203 24.9593 5.69925 25.109 5.85021 25.2187C6.00117 25.3283 6.17983 25.3935 6.36593 25.4067C6.55204 25.42 6.73813 25.3809 6.90312 25.2937L14 21.5625L21.0969 25.2937C21.2906 25.3969 21.5156 25.4312 21.7312 25.3937C22.275 25.3 22.6406 24.7844 22.5469 24.2406L21.1906 16.3375L26.9312 10.7406C27.0875 10.5875 27.1906 10.3875 27.2219 10.1687C27.3062 9.62187 26.925 9.11562 26.3781 9.03437V9.03437Z" fill="black"/>
</svg>
