<svg width="34" height="34" viewBox="0 0 34 34" fill="none" xmlns="http://www.w3.org/2000/svg">
<path d="M33.6258 15.6247V18.1977H28.2123C27.945 20.8488 26.8701 23.1155 24.9876 24.998C23.1052 26.8804 20.8273 27.9776 18.154 28.2895V33.703H15.5809V28.2895C12.9076 27.9776 10.6353 26.886 8.76396 25.0147C6.89264 23.1434 5.80103 20.871 5.48915 18.1977H0.1091V15.6247H5.48915C5.80103 12.9959 6.89821 10.7291 8.78067 8.8244C10.6631 6.91966 12.9299 5.83363 15.5809 5.5663V0.152832H18.154V5.5663C20.805 5.83363 23.0773 6.91966 24.9709 8.8244C26.8645 10.7291 27.945 12.9959 28.2123 15.6247H33.6258V15.6247ZM18.154 22.6755V25.7164C20.0698 25.4491 21.7351 24.6137 23.1497 23.2102C24.5644 21.8067 25.4053 20.1359 25.6727 18.1977H22.5984V15.6247H25.6727C25.4053 13.7088 24.5644 12.0491 23.1497 10.6456C21.7351 9.24211 20.0698 8.4067 18.154 8.13937V11.2137H15.5809V8.13937C13.665 8.4067 11.9998 9.24211 10.5852 10.6456C9.17052 12.0491 8.32954 13.7088 8.06221 15.6247H11.1365V18.1977H8.06221C8.32954 20.1359 9.17052 21.8067 10.5852 23.2102C11.9998 24.6137 13.665 25.4491 15.5809 25.7164V22.6755H18.154ZM16.8507 14.8227C17.43 14.8227 17.9312 15.0287 18.3545 15.4409C18.7777 15.853 18.9894 16.3487 18.9894 16.9279C18.9894 17.5071 18.7777 18.0084 18.3545 18.4316C17.9312 18.8549 17.43 19.0665 16.8507 19.0665C16.2715 19.0665 15.7758 18.8549 15.3637 18.4316C14.9516 18.0084 14.7455 17.5071 14.7455 16.9279C14.7455 16.3487 14.9516 15.853 15.3637 15.4409C15.7758 15.0287 16.2715 14.8227 16.8507 14.8227V14.8227Z" fill="black"/>
</svg>
