<?xml version="1.0" encoding="iso-8859-1"?>
<!-- Generator: Adobe Illustrator 19.0.0, SVG Export Plug-In . SVG Version: 6.00 Build 0)  -->
<svg version="1.1" id="Layer_1" xmlns="http://www.w3.org/2000/svg" xmlns:xlink="http://www.w3.org/1999/xlink" x="0px" y="0px"
	 viewBox="0 0 512 512" style="enable-background:new 0 0 512 512;" xml:space="preserve">
<g>
	<g>
		<path d="M508.952,427.62l-99.004-203.744c-10.921-22.474-43.022-22.454-53.933,0l-53.396,109.885l-46.747-82.455
			c-11.47-20.232-40.694-20.232-52.164,0l-10.636,18.761l-36.162-91.885c-0.158-0.403-0.344-0.788-0.518-1.181
			c-10.896-24.543-45.659-23.264-55.281,1.181L56.667,291.114L2.108,429.744c-7.74,19.666,6.796,40.962,27.899,40.962
			c17.115,0,435.788,0,451.98,0C504.056,470.706,518.636,447.546,508.952,427.62z M153.228,296.76l-24.217,18.183l-21.755-31.174
			l-22.69,18.326l44.445-112.934l44.445,112.933L153.228,296.76z M246.339,359.668l-36-32.625l-24.885,17.253l44.336-78.204
			l44.336,78.204L246.339,359.668z M392.591,323.666l-15.75,29.741l-16.875-38.466l-21.477,13.603l44.493-91.565l44.494,91.566
			C411.879,328.545,419.585,329.52,392.591,323.666z"/>
	</g>
</g>
<g>
	<g>
		<circle cx="284.03" cy="109.352" r="68.058"/>
	</g>
</g>
<g>
</g>
<g>
</g>
<g>
</g>
<g>
</g>
<g>
</g>
<g>
</g>
<g>
</g>
<g>
</g>
<g>
</g>
<g>
</g>
<g>
</g>
<g>
</g>
<g>
</g>
<g>
</g>
<g>
</g>
</svg>
