<svg width="26" height="26" viewBox="0 0 26 26" fill="none" xmlns="http://www.w3.org/2000/svg">
<path fill-rule="evenodd" clip-rule="evenodd" d="M13.0283 0.25C9.8288 0.25 6.91329 1.30683 5.1885 2.17029C5.03267 2.24821 4.88746 2.32471 4.75217 2.39838C4.48442 2.54429 4.25634 2.68029 4.075 2.8L6.03709 5.68858L6.96075 6.05621C10.5704 7.87733 15.4112 7.87733 19.0215 6.05621L20.0699 5.51221L21.9257 2.8C21.5412 2.54925 21.1414 2.32284 20.7286 2.12212C19.013 1.26787 16.1677 0.25 13.0283 0.25ZM8.46454 3.51967C7.76975 3.38965 7.08352 3.21744 6.40967 3.004C8.02538 2.28646 10.4337 1.525 13.0276 1.525C14.8247 1.525 16.524 1.8905 17.9293 2.35375C16.2824 2.58538 14.525 2.9785 12.8505 3.46229C11.533 3.84337 9.99313 3.80229 8.46454 3.51967ZM19.7695 7.10667L19.596 7.1945C15.6244 9.19767 10.3572 9.19767 6.38559 7.1945L6.22125 7.11092C0.25567 13.6566 -4.29891 25.7479 13.0283 25.7479C30.3542 25.7479 25.6884 13.4307 19.7695 7.10667ZM12.2917 13C11.9159 13 11.5556 13.1493 11.2899 13.4149C11.0243 13.6806 10.875 14.0409 10.875 14.4167C10.875 14.7924 11.0243 15.1527 11.2899 15.4184C11.5556 15.6841 11.9159 15.8333 12.2917 15.8333V13ZM13.7083 11.5833V10.875H12.2917V11.5833C11.5402 11.5833 10.8196 11.8818 10.2882 12.4132C9.75685 12.9446 9.45834 13.6652 9.45834 14.4167C9.45834 15.1681 9.75685 15.8888 10.2882 16.4201C10.8196 16.9515 11.5402 17.25 12.2917 17.25V20.0833C11.9987 20.0834 11.7129 19.9926 11.4736 19.8235C11.2344 19.6544 11.0535 19.4153 10.9558 19.1391C10.8932 18.962 10.7628 18.8169 10.5933 18.7359C10.4238 18.6549 10.2291 18.6445 10.0519 18.707C9.87477 18.7696 9.72972 18.9 9.64869 19.0695C9.56766 19.239 9.55728 19.4337 9.61984 19.6109C9.81522 20.1634 10.1771 20.6417 10.6556 20.98C11.1341 21.3183 11.7057 21.5 12.2917 21.5V22.2083H13.7083V21.5C14.4598 21.5 15.1805 21.2015 15.7118 20.6701C16.2432 20.1388 16.5417 19.4181 16.5417 18.6667C16.5417 17.9152 16.2432 17.1946 15.7118 16.6632C15.1805 16.1318 14.4598 15.8333 13.7083 15.8333V13C14.3246 13 14.8495 13.3931 15.045 13.9442C15.074 14.0344 15.1208 14.1178 15.1826 14.1896C15.2444 14.2613 15.32 14.32 15.4048 14.362C15.4897 14.404 15.5821 14.4286 15.6767 14.4343C15.7712 14.44 15.8659 14.4267 15.9552 14.3952C16.0445 14.3636 16.1266 14.3145 16.1966 14.2506C16.2666 14.1868 16.323 14.1096 16.3626 14.0236C16.4023 13.9376 16.4242 13.8445 16.4272 13.7498C16.4302 13.6551 16.4142 13.5608 16.3802 13.4725C16.1848 12.92 15.8229 12.4416 15.3444 12.1033C14.866 11.765 14.2944 11.5833 13.7083 11.5833ZM13.7083 17.25V20.0833C14.0841 20.0833 14.4444 19.9341 14.7101 19.6684C14.9757 19.4027 15.125 19.0424 15.125 18.6667C15.125 18.2909 14.9757 17.9306 14.7101 17.6649C14.4444 17.3993 14.0841 17.25 13.7083 17.25Z" fill="black"/>
</svg>
