<svg width="27" height="26" viewBox="0 0 27 26" fill="none" xmlns="http://www.w3.org/2000/svg">
<path fill-rule="evenodd" clip-rule="evenodd" d="M23.0938 13C23.0945 15.1907 22.343 17.3152 20.965 19.0183C19.587 20.7213 17.6661 21.8996 15.5234 22.356C13.3808 22.8124 11.1464 22.5192 9.19403 21.5256C7.24162 20.532 5.68958 18.8981 4.7975 16.8972L1.84163 18.0979C3.0134 20.7827 5.07382 22.9823 7.67649 24.3267C10.2792 25.6712 13.2654 26.0786 16.1331 25.4804C19.0007 24.8823 21.5751 23.315 23.4232 21.0421C25.2713 18.7693 26.2806 15.9294 26.2812 13C26.2814 10.3389 25.4489 7.74451 23.9004 5.58035C22.352 3.41618 20.1652 1.79074 17.6466 0.931821C15.1279 0.072906 12.4037 0.023568 9.85558 0.790722C7.30749 1.55788 5.06329 3.10307 3.4375 5.20975V1.3125H0.25V9.8125L1.84375 11.4063H9.28125V8.21875H5.248C6.3001 6.3948 7.9248 4.96911 9.86998 4.16291C11.8152 3.35671 13.9721 3.21508 16.006 3.76001C18.0399 4.30493 19.837 5.50594 21.1186 7.17665C22.4002 8.84737 23.0945 10.8944 23.0938 13Z" fill="black"/>
</svg>
