<?xml version="1.0" encoding="iso-8859-1"?>
<!-- Generator: Adobe Illustrator 16.0.0, SVG Export Plug-In . SVG Version: 6.00 Build 0)  -->
<!DOCTYPE svg PUBLIC "-//W3C//DTD SVG 1.1//EN" "http://www.w3.org/Graphics/SVG/1.1/DTD/svg11.dtd">
<svg version="1.1" id="Capa_1" xmlns="http://www.w3.org/2000/svg" xmlns:xlink="http://www.w3.org/1999/xlink" x="0px" y="0px"
	 width="612px" height="612px" viewBox="0 0 612 612" style="enable-background:new 0 0 612 612;" xml:space="preserve">
<g>
	<g>
		<path d="M432.272,68.692l-20.554,35.567l71.221,41.109l20.555-35.568c5.661-9.873,2.29-22.4-7.545-28.104l-35.567-20.555
			C450.542,55.443,437.977,58.814,432.272,68.692z"/>
		<path d="M306,92.56c13,0,25.699,1.272,38.25,3.065V62.357l26.297-0.201V19.125C370.547,8.554,361.993,0,351.422,0h-90.643
			c-10.571,0-19.125,8.554-19.125,19.125v43.031l26.096,0.201v33.268C280.301,93.832,293,92.56,306,92.56z"/>
		<path d="M306,114.75c-137.312,0-248.625,111.312-248.625,248.625S168.688,612,306,612s248.625-111.312,248.625-248.625
			S443.312,114.75,306,114.75z M422.185,480.229L277.312,379.933V238.34h41.808v119.689l126.86,87.827L422.185,480.229z"/>
	</g>
</g>
<g>
</g>
<g>
</g>
<g>
</g>
<g>
</g>
<g>
</g>
<g>
</g>
<g>
</g>
<g>
</g>
<g>
</g>
<g>
</g>
<g>
</g>
<g>
</g>
<g>
</g>
<g>
</g>
<g>
</g>
</svg>
