<svg width="35" height="34" viewBox="0 0 35 34" fill="none" xmlns="http://www.w3.org/2000/svg">
<path d="M26.925 12.75H18.85V16.4687C18.85 19.1051 17.1341 21.25 15.025 21.25C12.9159 21.25 11.2 19.1051 11.2 16.4687V8.39375L7.75218 10.9836C6.72687 11.7473 6.09999 13.1352 6.09999 14.6227V17.7637L1.84999 20.8316C1.03718 21.416 0.755616 22.7176 1.22843 23.7336L5.47843 32.9375C5.94593 33.9535 6.98718 34.2988 7.79999 33.7145L13.2931 29.75H20.55C22.4253 29.75 23.95 27.8441 23.95 25.5H24.8C25.7403 25.5 26.5 24.5504 26.5 23.375V19.125H26.925C27.6316 19.125 28.2 18.4145 28.2 17.5312V14.3437C28.2 13.4605 27.6316 12.75 26.925 12.75ZM34.7716 10.2664L30.5216 1.0625C30.0541 0.0464822 29.0128 -0.29883 28.2 0.285545L22.7069 4.25H17.2775C16.64 4.25 16.0184 4.47578 15.4766 4.89414L13.6969 6.28203C13.1975 6.66719 12.9 7.35117 12.9 8.08164V16.4687C12.9 17.9363 13.8509 19.125 15.025 19.125C16.1991 19.125 17.15 17.9363 17.15 16.4687V10.625H26.925C28.5666 10.625 29.9 12.2918 29.9 14.3437V16.2363L34.15 13.1684C34.9628 12.5773 35.2391 11.2824 34.7716 10.2664V10.2664Z" fill="black"/>
</svg>
