<svg width="34" height="34" viewBox="0 0 34 34" fill="none" xmlns="http://www.w3.org/2000/svg">
<path d="M27.625 26.5625V30.8125C27.625 32.5723 26.1973 34 24.4375 34H21.25V30.8125C21.25 30.2281 20.7719 29.75 20.1875 29.75C19.6031 29.75 19.125 30.2281 19.125 30.8125V34H14.875V30.8125C14.875 30.2281 14.3969 29.75 13.8125 29.75C13.2281 29.75 12.75 30.2281 12.75 30.8125V34H9.5625C7.80273 34 6.375 32.5723 6.375 30.8125V26.5625C6.375 26.5359 6.375 26.516 6.37566 26.4895C2.48891 23.7602 0 19.5699 0 14.875C0 6.66055 7.61016 0 17 0C26.3898 0 34 6.66055 34 14.875C34 19.5699 31.5098 23.7602 27.5652 26.4895C27.5652 26.516 27.625 26.5359 27.625 26.5625ZM10.625 12.75C8.28086 12.75 6.375 14.6559 6.375 17C6.375 19.3441 8.28086 21.25 10.625 21.25C12.9691 21.25 14.875 19.3441 14.875 17C14.875 14.6559 12.9691 12.75 10.625 12.75ZM23.375 21.25C25.7191 21.25 27.625 19.3441 27.625 17C27.625 14.6559 25.7191 12.75 23.375 12.75C21.0309 12.75 19.125 14.6559 19.125 17C19.125 19.3441 21.0309 21.25 23.375 21.25Z" fill="black"/>
</svg>
