<svg width="30" height="30" viewBox="0 0 30 30" fill="none" xmlns="http://www.w3.org/2000/svg">
<path d="M29.2803 14.0553L25.7143 9.375V1.875C25.7143 1.37772 25.4885 0.900806 25.0867 0.549175C24.6848 0.197544 24.1397 0 23.5714 0L21.4286 0C21.1113 8.63746e-05 20.8012 0.0822624 20.5371 0.236191L18.863 1.21307C17.7197 1.88191 16.3753 2.23892 15 2.23892C13.6247 2.23892 12.2803 1.88191 11.137 1.21307L9.46286 0.236191C9.19884 0.0822624 8.88869 8.63746e-05 8.57143 0L6.42857 0C5.86025 0 5.31521 0.197544 4.91334 0.549175C4.51148 0.900806 4.28571 1.37772 4.28571 1.875V9.375L0.719732 14.0553C0.250425 14.6713 -4.74873e-06 15.395 0 16.1354L0 28.125C0 28.6223 0.225765 29.0992 0.627628 29.4508C1.02949 29.8025 1.57454 30 2.14286 30H12.8571V16.875C12.8571 16.6735 12.8943 16.4733 12.9672 16.2821L13.8706 13.9102L10.0572 3.90023C11.5653 4.64748 13.267 5.04426 15 5.05277C16.733 5.04415 18.4347 4.64732 19.9428 3.90012L15 16.875V30H27.8571C28.4255 30 28.9705 29.8025 29.3724 29.4508C29.7742 29.0992 30 28.6223 30 28.125V16.1354C30 15.395 29.7496 14.6713 29.2803 14.0553V14.0553ZM8.79321 21.7566L5.57893 24.5691C5.37685 24.7398 5.10621 24.8343 4.82528 24.8322C4.54436 24.8301 4.27563 24.7315 4.07698 24.5576C3.87833 24.3838 3.76565 24.1487 3.76321 23.9029C3.76077 23.6571 3.86876 23.4203 4.06393 23.2434L7.27821 20.4309C7.48029 20.2602 7.75093 20.1657 8.03186 20.1678C8.31278 20.1699 8.58151 20.2685 8.78016 20.4424C8.97881 20.6162 9.09149 20.8513 9.09394 21.0971C9.09638 21.3429 8.98838 21.5797 8.79321 21.7566ZM25.9361 24.5691C25.8366 24.6561 25.7185 24.7252 25.5886 24.7724C25.4586 24.8195 25.3193 24.8437 25.1786 24.8437C25.0379 24.8437 24.8986 24.8195 24.7686 24.7724C24.6386 24.7252 24.5205 24.6561 24.4211 24.5691L21.2068 21.7566C21.0116 21.5797 20.9036 21.3429 20.9061 21.0971C20.9085 20.8513 21.0212 20.6162 21.2198 20.4424C21.4185 20.2685 21.6872 20.1699 21.9681 20.1678C22.2491 20.1657 22.5197 20.2602 22.7218 20.4309L25.9361 23.2434C26.0356 23.3305 26.1145 23.4338 26.1684 23.5475C26.2222 23.6612 26.25 23.7831 26.25 23.9062C26.25 24.0294 26.2222 24.1513 26.1684 24.265C26.1145 24.3787 26.0356 24.482 25.9361 24.5691V24.5691Z" fill="black"/>
</svg>
