<svg width="31" height="32" viewBox="0 0 31 32" fill="none" xmlns="http://www.w3.org/2000/svg">
<path d="M16 -0.000499725C16.2937 -0.000499725 16.575 0.0630003 16.8375 0.182063L28.6063 5.17438C29.9813 5.7575 31.0125 7.1125 31 8.69375C30.9688 14.95 28.4187 26.2938 17.65 31.45C16.6062 31.9438 15.3938 31.9438 14.35 31.45C3.57812 26.2938 1.03063 14.95 0.94375 8.69375C0.991875 7.1125 2.02 5.7575 3.39375 5.17438L15.1687 0.182063C15.425 0.0630003 15.7125 -0.000499725 16 -0.000437225V-0.000499725ZM16 27.8C24.5688 23.625 26.9438 14.3812 27 8.8375L16 4.17313V27.8Z" fill="black"/>
</svg>
