<svg width="32" height="32" viewBox="0 0 32 32" fill="none" xmlns="http://www.w3.org/2000/svg">
<path d="M29.3334 6.79111C28.1422 4.34667 24.7111 2.34667 20.72 3.51111C18.9426 4.12622 17.3683 5.21779 16.1689 6.66667C15.2296 7.89612 14.486 9.26337 13.9645 10.72L19.7956 13.3333L14.8445 18.0089L16.8889 20.4444L15.4934 21.6356L12.2934 17.8844L16.5067 13.8756L11.6711 11.7333C12.0979 10.0085 12.7874 8.35959 13.7156 6.84445C14.0004 6.36871 14.3151 5.9115 14.6578 5.47556H14.7111C13.7254 4.5688 12.5413 3.9052 11.2534 3.53778C7.28002 2.36445 3.8578 4.34667 2.66669 6.79111C0.99558 10.2133 1.68891 14.0622 4.72891 18.2311C7.11114 21.4933 10.5156 24.8 15.4578 28.64C15.614 28.7618 15.8064 28.828 16.0045 28.828C16.2025 28.828 16.3949 28.7618 16.5511 28.64C21.4845 24.8089 24.8978 21.5289 27.28 18.2311C30.3111 14.0622 31.0045 10.2133 29.3334 6.79111V6.79111Z" fill="black"/>
</svg>
