<svg width="15" height="30" viewBox="0 0 15 30" fill="none" xmlns="http://www.w3.org/2000/svg">
<path d="M3.84493 11.9343L6.10876 1.39291C6.14279 1.23446 6.23013 1.09248 6.3562 0.990641C6.48227 0.888806 6.63945 0.83328 6.80151 0.833328H14.2794C14.7058 0.833328 15.0373 1.20733 14.9523 1.62524C13.8537 6.99937 8.70834 12.7475 8.70834 12.7475L9.61572 14.274C10.1791 15.2217 10.4538 16.3132 10.4062 17.4147L10.125 23.9172L11.4305 25.5195C11.6777 25.8228 11.8377 26.1877 11.8931 26.5751C11.9485 26.9625 11.8973 27.3577 11.745 27.7181L11.706 27.8116C11.595 28.0742 11.4306 28.3108 11.2234 28.5066C11.0162 28.7024 10.7705 28.853 10.5021 28.949C10.2336 29.0449 9.94819 29.0841 9.66381 29.064C9.37944 29.0439 9.10232 28.965 8.85001 28.8323C8.29955 28.5431 7.66726 28.4492 7.05651 28.566L4.23593 29.105C4.14809 29.122 4.05884 29.1305 3.9703 29.1305H1.62501C1.24929 29.1305 0.888952 28.9813 0.623276 28.7156C0.357599 28.4499 0.208344 28.0896 0.208344 27.7139V26.8965H2.33334L6.93751 25.035L3.96322 16.0016C3.82202 15.5728 3.75005 15.1242 3.75001 14.6727V12.8268C3.75001 12.5265 3.78189 12.2276 3.84493 11.9343Z" fill="black"/>
</svg>
