<?xml version="1.0" encoding="iso-8859-1"?>
<!-- Generator: Adobe Illustrator 17.1.0, SVG Export Plug-In . SVG Version: 6.00 Build 0)  -->
<!DOCTYPE svg PUBLIC "-//W3C//DTD SVG 1.1//EN" "http://www.w3.org/Graphics/SVG/1.1/DTD/svg11.dtd">
<svg version="1.1" id="Capa_1" xmlns="http://www.w3.org/2000/svg" xmlns:xlink="http://www.w3.org/1999/xlink" x="0px" y="0px"
	 viewBox="0 0 297.334 297.334" style="enable-background:new 0 0 297.334 297.334;" xml:space="preserve">
<g>
	<polygon points="172.667,64 206.687,0 90.623,0 124.649,64 	"/>
	<path d="M227.904,8.293c-2.553-4.837-6.726-4.834-9.272,0.006l-55.839,106.095c20.009,2.892,38.11,11.76,52.427,24.735
		l36.208-68.682c2.551-4.838,2.549-12.754-0.004-17.591L227.904,8.293z"/>
	<path d="M134.518,114.35L78.7,8.299c-2.547-4.84-6.72-4.843-9.272-0.006L45.909,52.856c-2.552,4.837-2.554,12.753-0.004,17.591
		l36.102,68.48C96.362,125.996,114.491,117.181,134.518,114.35z"/>
	<path d="M148.502,128.279c-46.685,0-84.529,37.844-84.529,84.528c0,46.682,37.845,84.526,84.529,84.526
		c46.682,0,84.526-37.845,84.526-84.526C233.028,166.123,195.184,128.279,148.502,128.279z M148.502,273.125
		c-33.262,0-60.32-27.059-60.32-60.317c0-33.261,27.059-60.319,60.32-60.319c33.259,0,60.316,27.059,60.316,60.319
		C208.819,246.066,181.761,273.125,148.502,273.125z"/>
	<path d="M148.502,167.404c-25.038,0-45.404,20.367-45.404,45.403c0,25.033,20.366,45.4,45.404,45.4
		c25.033,0,45.399-20.367,45.399-45.4C193.902,187.771,173.535,167.404,148.502,167.404z"/>
</g>
<g>
</g>
<g>
</g>
<g>
</g>
<g>
</g>
<g>
</g>
<g>
</g>
<g>
</g>
<g>
</g>
<g>
</g>
<g>
</g>
<g>
</g>
<g>
</g>
<g>
</g>
<g>
</g>
<g>
</g>
</svg>
